ply
format ascii 1.0
comment Generated from voxel surface
element vertex 34
property float x
property float y
property float z
element face 32
property list uchar int vertex_indices
end_header
0 1 2
0 2 2
0 2 1
0 1 1
1 2 2
1 2 1
1 1 1
1 1 2
2 2 2
2 2 1
2 1 1
2 1 2
3 1 1
3 1 2
3 2 1
2 1 3
2 2 3
3 1 3
3 2 3
2 3 2
2 3 1
3 3 2
3 3 1
2 3 3
3 3 3
4 1 1
4 2 1
4 2 2
4 1 2
4 2 3
4 1 3
4 3 1
4 3 2
4 3 3
4 0 1 2 3 
4 1 4 5 2 
4 3 6 7 0 
4 0 7 4 1 
4 6 3 2 5 
4 4 8 9 5 
4 6 10 11 7 
4 7 11 8 4 
4 10 6 5 9 
4 10 12 13 11 
4 12 10 9 14 
4 15 16 8 11 
4 11 13 17 15 
4 15 17 18 16 
4 8 19 20 9 
4 19 21 22 20 
4 14 9 20 22 
4 16 23 19 8 
4 23 24 21 19 
4 16 18 24 23 
4 25 26 27 28 
4 12 25 28 13 
4 25 12 14 26 
4 28 27 29 30 
4 13 28 30 17 
4 17 30 29 18 
4 26 31 32 27 
4 21 32 31 22 
4 26 14 22 31 
4 27 32 33 29 
4 24 33 32 21 
4 18 29 33 24 
